<svg width="47" height="43" viewBox="0 0 47 43" fill="none" xmlns="http://www.w3.org/2000/svg">
<g clip-path="url(#clip0)">
<path d="M7.91512 13.6685C7.41694 13.6685 7.01147 14.0827 7.01147 14.5918C7.01147 15.1009 7.41685 15.5151 7.91512 15.5151C8.41339 15.5151 8.81877 15.1009 8.81877 14.5918C8.81877 14.0827 8.4133 13.6685 7.91512 13.6685Z" fill="black"/>
<path d="M7.91499 6.50391C3.5507 6.50391 0 10.1319 0 14.5912C0 16.8003 1.17931 19.6866 3.50507 23.1699C5.16898 25.6619 6.81141 27.5463 6.88044 27.6254C7.14371 27.9263 7.51999 28.0983 7.91499 28.0983C8.30999 28.0983 8.68626 27.9263 8.94953 27.6254C9.01866 27.5464 10.661 25.6619 12.3249 23.1699C14.6508 19.6867 15.83 16.8003 15.83 14.5912C15.83 10.1319 12.2793 6.50391 7.91499 6.50391ZM7.91499 18.35C5.88665 18.35 4.23642 16.6638 4.23642 14.5913C4.23642 12.5187 5.88665 10.8326 7.91499 10.8326C9.94342 10.8326 11.5936 12.5188 11.5936 14.5913C11.5936 16.6638 9.94333 18.35 7.91499 18.35Z" fill="black"/>
<path d="M32.7179 37.1644H29.2651C26.8189 37.1644 24.8287 35.1308 24.8287 32.6313C24.8287 28.5683 21.5936 25.2627 17.6171 25.2627H14.2819C13.5155 26.3786 12.7703 27.36 12.1858 28.0981H17.6173C20.0636 28.0981 22.0537 30.1317 22.0537 32.6313C22.0537 36.6943 25.2888 39.9998 29.2652 39.9998H34.814C34.2295 39.2616 33.4843 38.2802 32.7179 37.1644Z" fill="black"/>
<path d="M39.0848 25.5698C38.5865 25.5698 38.1812 25.984 38.1812 26.4932C38.1812 27.0023 38.5865 27.4165 39.0848 27.4165C39.5831 27.4165 39.9884 27.0023 39.9884 26.4932C39.9884 25.9839 39.5831 25.5698 39.0848 25.5698Z" fill="black"/>
<path d="M39.0851 18.4058C34.7208 18.4058 31.1702 22.0338 31.1702 26.493C31.1702 28.7022 32.3495 31.5885 34.6752 35.0718C36.3391 37.5637 37.9815 39.4482 38.0505 39.5272C38.3139 39.8281 38.6901 40.0001 39.0852 40.0001C39.4802 40.0001 39.8564 39.8281 40.1198 39.5272C40.1889 39.4482 41.8313 37.5638 43.4951 35.0718C45.8209 31.5886 47.0001 28.7022 47.0001 26.493C47 22.0337 43.4494 18.4058 39.0851 18.4058ZM39.0851 30.2518C37.0566 30.2518 35.4065 28.5657 35.4065 26.4931C35.4065 24.4205 37.0567 22.7344 39.0851 22.7344C41.1134 22.7344 42.7636 24.4206 42.7636 26.4931C42.7636 28.5657 41.1135 30.2518 39.0851 30.2518Z" fill="black"/>
</g>
<defs>
<clipPath id="clip0">
<rect width="47" height="43" fill="white"/>
</clipPath>
</defs>
</svg>
