<svg width="43" height="43" viewBox="0 0 43 43" fill="none" xmlns="http://www.w3.org/2000/svg">
<path d="M8.3125 26C5.27994 26 2.8125 28.6918 2.8125 32C2.8125 35.3082 5.27994 38 8.3125 38C11.3451 38 13.8125 35.3082 13.8125 32C13.8125 28.6918 11.3451 26 8.3125 26ZM8.3125 36.5C6.03756 36.5 4.1875 34.4818 4.1875 32C4.1875 29.5182 6.03756 27.5 8.3125 27.5C10.5874 27.5 12.4375 29.5182 12.4375 32C12.4375 34.4818 10.5874 36.5 8.3125 36.5Z" fill="black"/>
<path d="M8.24107 24.931C11.3454 24.931 13.9426 27.5414 14.5398 31H19.8125V27.2069H16.5982C14.8259 27.2069 13.3839 25.5053 13.3839 23.4138V22.6552C13.3839 21.8184 13.9606 21.1379 14.6696 21.1379H19.8125V21.1083C19.8125 19.4492 18.6721 18.1034 17.2655 18.1034H14.3791C13.7388 18.1034 13.1223 17.819 12.6517 17.3061C11.7234 16.2949 10.7951 15.2837 9.86621 14.2724C7.35907 11.5406 5.49864 9 1.8125 9V31H1.94236C2.53957 27.5414 5.13671 24.931 8.24107 24.931ZM3.09821 13.5517L8.24943 18.1027C8.24943 18.1027 8.24686 18.1034 8.24107 18.1034H3.09821V13.5517Z" fill="black"/>
<path d="M40.8125 30.1321C40.8125 27.5685 39.0563 25.4907 36.8894 25.4907H35.5817H33.6202C37.2314 25.4907 40.8125 22.0274 40.8125 17.755C40.8125 15.3407 39.8775 13.1847 38.4129 11.766C36.8848 10.2861 34.5657 11.0512 33.783 13.1963C33.781 13.2017 33.7797 13.2079 33.7778 13.2133C33.3704 13.112 32.9395 13.0849 32.4956 13.146C30.7707 13.3835 29.3427 15.0119 29.0877 17.0441C28.904 18.5077 29.2989 19.8668 30.0423 20.8493H28.7163C27.0915 20.8493 25.774 22.408 25.774 24.3303C25.774 26.2527 27.0915 27.8114 28.7163 27.8114H30.351C31.0735 27.8114 31.6587 28.5038 31.6587 29.3586C31.6587 30.2134 31.0735 30.9057 30.351 30.9057H23.8125V34H37.5433C39.3485 34 40.8125 32.268 40.8125 30.1321Z" fill="black"/>
<path d="M29.0233 9.0754C29.0215 9.1174 29.0125 9.1573 29.0125 9.2C29.0125 10.7463 30.0871 12 31.4125 12C32.7379 12 33.8125 10.7463 33.8125 9.2C33.8125 7.6537 32.7379 6.4 31.4125 6.4C31.3759 6.4 31.3417 6.4105 31.3057 6.4126C31.0609 5.5922 30.3991 5 29.6125 5C28.6183 5 27.8125 5.9401 27.8125 7.1C27.8125 8.0177 28.3201 8.7898 29.0233 9.0754Z" fill="black"/>
<path d="M35.3125 5C36.1409 5 36.8125 4.32843 36.8125 3.5C36.8125 2.67157 36.1409 2 35.3125 2C34.4841 2 33.8125 2.67157 33.8125 3.5C33.8125 4.32843 34.4841 5 35.3125 5Z" fill="black"/>
<path d="M5.94376 31C5.86 31.3148 5.8125 31.6584 5.8125 32.0194C5.8125 32.3664 5.8587 32.6959 5.93599 33L6.8125 32.0107L5.94376 31Z" fill="black"/>
<path d="M14.8125 23.75C14.8125 24.9905 15.6537 26 16.6875 26H19.8125V23H14.8125V23.75Z" fill="black"/>
<path d="M9.8125 29.671C9.39864 29.2583 8.87579 29 8.29902 29C7.73484 29 7.22216 29.2474 6.8125 29.6442L8.30441 31L9.8125 29.671Z" fill="black"/>
<path d="M8.8125 31.9889L10.5501 33C10.7175 32.6858 10.8125 32.342 10.8125 31.9809C10.8125 31.6338 10.7201 31.3042 10.5656 31L8.8125 31.9889Z" fill="black"/>
<path d="M6.8125 34.329C7.22635 34.7417 7.74921 35 8.32598 35C8.89016 35 9.40284 34.7526 9.8125 34.3558L8.32059 33L6.8125 34.329Z" fill="black"/>
<path d="M14.9442 32C14.9442 32.685 14.8986 33.354 14.8125 34H20.8125V31H14.911C14.9325 31.329 14.9442 31.662 14.9442 32V32Z" fill="black"/>
</svg>
