<svg width="43" height="43" viewBox="0 0 43 43" fill="none" xmlns="http://www.w3.org/2000/svg">
<path d="M27.7709 10.302C29.7417 10.302 31.3542 8.68947 31.3542 6.71861C31.3542 4.74775 29.7417 3.13525 27.7709 3.13525C25.8 3.13525 24.1875 4.74775 24.1875 6.71861C24.1875 8.68947 25.8 10.302 27.7709 10.302Z" fill="black"/>
<path d="M8.95836 21.9478C4.03125 21.9478 0 25.979 0 30.9061C0 35.8332 4.03125 39.8645 8.95836 39.8645C13.8855 39.8645 17.9167 35.8332 17.9167 30.9061C17.9167 25.979 13.8854 21.9478 8.95836 21.9478Z" fill="black"/>
<path d="M33.9521 20.0666V16.4833C31.2646 16.4833 29.025 15.4979 27.4125 13.8854L23.9187 10.4813C23.3812 9.85414 22.4854 9.40625 21.5 9.40625C20.5146 9.40625 19.6187 9.76461 18.9916 10.4813L14.0645 15.4084C13.4374 16.0355 12.9895 16.9313 12.9895 17.9167C12.9895 18.9022 13.4374 19.798 14.0645 20.5146L19.7083 25.5313V34.4896H23.2916V23.2916L19.35 19.35L23.5604 15.05L24.9041 16.3938C27.1437 18.7229 30.2791 20.0666 33.9521 20.0666Z" fill="black"/>
<path d="M34.0416 21.9478C29.1145 21.9478 25.0833 25.979 25.0833 30.9061C25.0833 35.8332 29.1145 39.8645 34.0416 39.8645C38.9687 39.8645 43 35.8332 43 30.9061C43 25.979 38.9687 21.9478 34.0416 21.9478Z" fill="black"/>
</svg>
