<svg width="43" height="43" viewBox="0 0 43 43" fill="none" xmlns="http://www.w3.org/2000/svg">
<g clip-path="url(#clip0)">
<path d="M7.99458 34.6098C6.85348 34.5288 5.86288 35.3882 5.7819 36.5293C5.70091 37.6704 6.56037 38.661 7.70147 38.742C7.75163 38.7456 7.8018 38.747 7.85125 38.747C8.99512 38.7466 9.92203 37.8191 9.92167 36.6752C9.92123 35.5875 9.0796 34.6854 7.99458 34.6098ZM8.4871 36.7164C8.48701 36.7172 8.48701 36.718 8.48692 36.7188L8.48406 36.721C8.47358 36.8896 8.39618 37.0469 8.26906 37.1581C8.14221 37.2705 7.97496 37.3261 7.8061 37.3122C7.45467 37.2886 7.18879 36.9846 7.21244 36.6331C7.23492 36.2975 7.51424 36.037 7.85053 36.038H7.89568C8.24631 36.0621 8.51111 36.3658 8.4871 36.7164Z" fill="black"/>
<path d="M30.9274 34.6098C29.7863 34.5288 28.7957 35.3882 28.7148 36.5293C28.6338 37.6704 29.4932 38.661 30.6343 38.742C30.6845 38.7456 30.7347 38.747 30.7841 38.747C31.928 38.7466 32.8549 37.8191 32.8545 36.6752C32.8541 35.5875 32.0125 34.6854 30.9274 34.6098ZM31.42 36.7164C31.4199 36.7172 31.4199 36.718 31.4198 36.7188L31.4169 36.721C31.4064 36.8896 31.329 37.0469 31.2019 37.1581C31.0753 37.2707 30.9079 37.3264 30.739 37.3122C30.3875 37.2886 30.1216 36.9846 30.1453 36.6331C30.1678 36.2975 30.4471 36.037 30.7834 36.038H30.8285C31.1792 36.0621 31.444 36.3658 31.42 36.7164Z" fill="black"/>
<path d="M20.0665 30.1011H17.1998C16.804 30.1011 16.4832 30.422 16.4832 30.8177C16.4832 31.2135 16.804 31.5344 17.1998 31.5344H20.0665C20.4622 31.5344 20.7831 31.2135 20.7831 30.8177C20.7831 30.422 20.4622 30.1011 20.0665 30.1011Z" fill="black"/>
<path d="M4.72994 4.44459C4.60587 4.35152 4.45501 4.30126 4.29994 4.30126H3.58328L4.87327 2.58128C5.11075 2.2646 5.04661 1.81544 4.72994 1.57796C4.41327 1.34047 3.9641 1.40461 3.72662 1.72129L1.57664 4.58792C1.33916 4.9046 1.4033 5.35376 1.71997 5.59125C1.84404 5.68432 1.9949 5.73458 2.14997 5.73458H2.86663L1.57664 7.45456C1.33907 7.77106 1.40303 8.22031 1.71952 8.45797C2.03602 8.69564 2.48527 8.63158 2.72294 8.31509C2.72302 8.31491 2.7232 8.31473 2.72329 8.31455L4.87327 5.44792C5.11075 5.13124 5.04652 4.68208 4.72994 4.44459Z" fill="black"/>
<path d="M40.6752 17.2009C38.5709 14.4848 35.327 12.8969 31.8912 12.901H14.2757C13.9198 10.4351 11.8079 8.60403 9.31638 8.60107H5.01643C4.62065 8.60107 4.29977 8.92196 4.29977 9.31773V10.7511H-0.000190807V12.1844H4.29977V15.051H-0.000190807V16.4843H4.29977V17.9176C4.29977 18.3134 4.62065 18.6343 5.01643 18.6343H9.31638C11.8079 18.6313 13.9198 16.8003 14.2757 14.3343H31.8912C37.2257 14.3254 41.5576 18.6427 41.5664 23.9774C41.5707 26.5632 40.538 29.0429 38.6994 30.8612V29.3842C38.6994 29.1941 38.6238 29.0119 38.4894 28.8775L37.4001 27.7882C33.5806 23.949 28.4427 21.7078 23.0304 21.5203C22.9984 21.5116 22.9658 21.5051 22.9329 21.5009C22.907 21.5044 22.8814 21.5096 22.8562 21.5167C22.6412 21.5103 22.4341 21.5009 22.222 21.5009C16.9643 21.4991 11.8891 23.4284 7.96046 26.9225L7.52545 27.3095L3.57522 28.4948C1.44692 29.1225 -0.0104032 31.0811 -0.000190807 33.3V36.5508C-0.000190807 36.9466 0.320693 37.2674 0.716469 37.2674H2.92378C3.31714 40.0063 5.85635 41.9078 8.59533 41.5145C10.7967 41.1983 12.5262 39.4687 12.8423 37.2674H25.8569C26.2502 40.0063 28.7895 41.9078 31.5284 41.5145C33.7298 41.1983 35.4593 39.4687 35.7755 37.2674H37.9828C38.3785 37.2674 38.6994 36.9466 38.6994 36.5508V32.7661C43.5433 29.0135 44.4279 22.0447 40.6752 17.2009ZM7.88315 40.1342C5.90419 40.1342 4.29986 38.5298 4.29986 36.5509C4.29986 34.5719 5.90419 32.9676 7.88315 32.9676C9.86212 32.9676 11.4665 34.5719 11.4665 36.5509C11.464 38.5288 9.86113 40.1317 7.88315 40.1342ZM22.2163 27.2343H9.82817C13.3571 24.4497 17.7211 22.935 22.2163 22.9343V27.2343ZM23.6497 22.9902C26.7478 23.2015 29.7533 24.1365 32.4244 25.72L29.9011 27.2343H23.6497V22.9902ZM30.8163 40.1342C28.8373 40.1342 27.233 38.5298 27.233 36.5509C27.233 34.5719 28.8373 32.9676 30.8163 32.9676C32.7952 32.9676 34.3996 34.5719 34.3996 36.5509C34.3971 38.5288 32.7942 40.1317 30.8163 40.1342Z" fill="black"/>
</g>
<defs>
<clipPath id="clip0">
<rect width="43" height="43" fill="white"/>
</clipPath>
</defs>
</svg>
