<svg width="43" height="43" viewBox="0 0 43 43" fill="none" xmlns="http://www.w3.org/2000/svg">
<g clip-path="url(#clip0)">
<path d="M36.4436 4.59347C36.4436 7.13401 34.3874 9.18925 31.8464 9.18925C29.3065 9.18925 27.2479 7.13401 27.2479 4.59347C27.2479 2.05642 29.3065 0 31.8464 0C34.3874 0 36.4436 2.05642 36.4436 4.59347ZM38.7067 19.4283C36.3818 19.9171 34.773 20.035 33.6526 19.9591C31.6898 19.8285 31.2085 19.1122 30.9784 18.7624C30.525 18.094 30.3755 17.2343 30.2317 16.1833L28.227 22.4168C27.9699 23.0747 27.5493 24.7754 26.9791 25.9361C27.1333 26.1227 27.2818 26.3035 27.4254 26.4749C29.4467 28.9163 30.421 30.1468 30.5519 31.416C30.6301 32.1672 30.789 33.7303 23.8947 42.2231C23.4484 42.7725 22.779 43.0396 22.1212 42.9953C21.7031 42.9672 21.2871 42.8145 20.9377 42.5299C20.0358 41.802 19.9014 40.4757 20.6304 39.5776C22.9319 36.7408 25.5455 33.1703 26.2418 31.7716C26.0503 31.4776 25.7417 31.0753 25.4076 30.6518C23.9951 33.0862 20.6876 37.7836 18.5869 40.7113C18.1488 41.3238 17.4408 41.6306 16.7375 41.5825C16.3624 41.5581 15.9886 41.4321 15.6568 41.1953C14.7151 40.5223 14.499 39.21 15.1731 38.2664C18.1768 34.072 21.6584 28.9862 22.0463 28.0821C22.1538 27.7684 22.2835 27.3799 22.4061 26.953C21.4352 25.6955 20.6127 24.473 20.2296 23.3884C19.8721 22.3759 20.1571 21.2549 20.4691 20.2681C21.5205 16.9321 23.5441 13.9612 24.8631 10.7266C22.7846 10.6415 19.6687 11.0007 15.686 12.888C15.5505 12.951 15.4126 12.9965 15.2713 13.0222L16.0751 14.4802L13.7724 15.7446L14.8601 17.7229L8.08856 21.4403L2.9563 12.1007L9.72434 8.3844L10.7606 10.2705L13.0646 9.00612L13.7375 10.2286C13.8777 10.0781 14.0472 9.94863 14.2469 9.85301C21.8058 6.26853 27.0271 7.45361 28.6323 7.97966C28.8929 8.03798 29.1616 8.1243 29.4489 8.24567C30.3754 8.63294 30.9748 9.0423 31.3427 9.46923C31.5273 9.58587 31.6967 9.74336 31.8311 9.93578C33.0087 11.647 33.2973 13.7944 33.5088 15.3575C33.559 15.7552 33.6303 16.2545 33.7003 16.5985C34.5428 16.6242 36.391 16.4807 38.0149 16.1389C38.9332 15.95 39.8153 16.5308 40.0081 17.4384C40.1974 18.3482 39.6144 19.237 38.7067 19.4283ZM13.7925 13.8177L12.3987 11.2853L11.6614 11.689L13.0529 14.2214L13.7925 13.8177Z" fill="black"/>
</g>
<defs>
<clipPath id="clip0">
<rect width="43" height="43" fill="white"/>
</clipPath>
</defs>
</svg>
