<svg width="43" height="43" viewBox="0 0 43 43" fill="none" xmlns="http://www.w3.org/2000/svg">
<g clip-path="url(#clip0)">
<path d="M12.7468 5.93115H10.4652C10.2551 5.93115 10.0055 6.17151 9.9083 6.46799L0.0207466 36.5331C-0.0767448 36.8296 0.17866 37.0695 0.591609 37.0691L5.07428 37.0639C5.45002 37.0885 5.80022 36.8728 5.94741 36.5262L13.0012 6.46791C13.0705 6.17151 12.9569 5.93115 12.7468 5.93115V5.93115Z" fill="black"/>
<path d="M15.7839 5.93115C15.5985 5.93115 15.4132 6.16839 15.3613 6.46495L10.3866 36.5205C10.3348 36.817 10.5868 37.0617 10.9575 37.0617L18.6827 37.0468C18.5784 36.8644 18.527 36.6564 18.5344 36.4463L18.6308 31.7163C18.6718 30.9597 19.3119 30.3757 20.0691 30.4041L21.4925 30.3967L22.9308 30.4041C23.688 30.3757 24.3281 30.9597 24.3691 31.7163L24.4654 36.4463C24.4728 36.6564 24.4215 36.8644 24.3172 37.0468L32.0423 37.0617C32.413 37.0617 32.6651 36.817 32.6132 36.5205L27.6385 6.46495C27.5866 6.16839 27.4013 5.93115 27.216 5.93115H23.7685L23.8797 10.5796C23.8899 10.9259 23.7619 11.262 23.5239 11.5137C23.3094 11.734 23.0158 11.8595 22.7084 11.8622H20.2915C19.984 11.8595 19.6904 11.734 19.476 11.5137C19.238 11.262 19.1099 10.9259 19.1201 10.5796L19.2313 5.93115L15.7839 5.93115ZM24.2653 26.8974C24.2728 27.2184 24.1497 27.5287 23.9242 27.7574C23.6483 28.0252 23.2783 28.1743 22.8937 28.1725H20.1061C19.7215 28.1743 19.3516 28.0252 19.0756 27.7574C18.8501 27.5287 18.7271 27.2184 18.7346 26.8974L18.831 22.7456C18.8668 22.0384 19.4574 21.4872 20.1654 21.5001H22.8344C23.5424 21.4872 24.133 22.0384 24.1689 22.7456L24.2653 26.8974ZM20.2618 13.3449H22.738C23.3982 13.3326 23.9477 13.8492 23.9761 14.5089L24.0725 18.0675C24.0817 18.3751 23.9637 18.6728 23.7463 18.8905C23.4943 19.1408 23.1525 19.2796 22.7973 19.276H20.2025C19.8473 19.2796 19.5055 19.1408 19.2535 18.8905C19.0362 18.6728 18.9182 18.3751 18.9273 18.0675L19.0237 14.5089C19.0521 13.8492 19.6016 13.3326 20.2618 13.3449Z" fill="black"/>
<path d="M37.926 37.0639L42.4086 37.0691C42.8212 37.0695 43.0766 36.8295 42.9795 36.5331L33.0916 6.46799C32.9941 6.17143 32.7448 5.93115 32.5347 5.93115H30.2531C30.043 5.93115 29.9291 6.17151 29.9987 6.46791L37.0528 36.5262C37.2 36.8728 37.5502 37.0885 37.926 37.0639V37.0639Z" fill="black"/>
</g>
<defs>
<clipPath id="clip0">
<rect width="43" height="43" fill="white"/>
</clipPath>
</defs>
</svg>
