<svg width="39" height="39" viewBox="0 0 39 39" fill="none" xmlns="http://www.w3.org/2000/svg">
<g clip-path="url(#clip0)">
<path d="M7.21875 10.0259V2.80713C7.21875 2.39005 7.26687 1.989 7.37917 1.604H2.80729C1.26729 1.604 0 2.8713 0 4.41129V11.63C0 13.17 1.26729 14.4373 2.80729 14.4373H3.40083L5.45417 17.1644C5.67875 17.4532 6.01562 17.6296 6.36854 17.6457H6.41667C6.76958 17.6457 7.09042 17.5013 7.315 17.2286L9.72125 14.4855C8.22937 13.555 7.21875 11.9027 7.21875 10.0259V10.0259Z" fill="black"/>
<path d="M35.6928 1.604H31.1209C31.2332 1.989 31.2813 2.39005 31.2813 2.80713V10.0259C31.2813 11.9027 30.2707 13.555 28.7788 14.4855L31.1851 17.2286C31.4096 17.5013 31.7305 17.6457 32.0834 17.6457H32.1315C32.4844 17.6296 32.8213 17.4532 33.0459 17.1644L35.0832 14.4373H35.6928C37.2328 14.4373 38.5001 13.17 38.5001 11.63V4.41129C38.5001 2.8713 37.2328 1.604 35.6928 1.604V1.604Z" fill="black"/>
<path d="M19.25 16.0417C19.2356 16.0417 19.2195 16.0417 19.2051 16.0417C18.8425 16.0272 18.5057 15.8508 18.2875 15.5604L16.2422 12.8333H12.4323C10.8843 12.8333 9.625 11.5741 9.625 10.026V2.80729C9.625 1.25927 10.8843 0 12.4323 0H26.0677C27.6157 0 28.875 1.25927 28.875 2.80729V10.026C28.875 11.5741 27.6157 12.8333 26.0677 12.8333H22.6027L20.1547 15.631C19.927 15.8925 19.5965 16.0417 19.25 16.0417Z" fill="black"/>
<path d="M6.41658 27.2707C8.1885 27.2707 9.62492 25.8343 9.62492 24.0623C9.62492 22.2904 8.1885 20.854 6.41658 20.854C4.64467 20.854 3.20825 22.2904 3.20825 24.0623C3.20825 25.8343 4.64467 27.2707 6.41658 27.2707Z" fill="black"/>
<path d="M10.6998 29.5167C9.07958 30.7358 8.02083 32.6929 8.02083 34.8906V35.2917H1.20312C0.545417 35.2917 0 34.7463 0 34.0885V33.2865C0 30.8481 1.97312 28.875 4.41146 28.875H8.42187C9.25604 28.875 10.0421 29.1156 10.6998 29.5167Z" fill="black"/>
<path d="M32.0833 27.2707C33.8553 27.2707 35.2917 25.8343 35.2917 24.0623C35.2917 22.2904 33.8553 20.854 32.0833 20.854C30.3114 20.854 28.875 22.2904 28.875 24.0623C28.875 25.8343 30.3114 27.2707 32.0833 27.2707Z" fill="black"/>
<path d="M38.5001 33.2865V34.0885C38.5001 34.7463 37.9547 35.2917 37.297 35.2917H30.4793V34.8906C30.4793 32.6929 29.4205 30.7358 27.8003 29.5167C28.458 29.1156 29.244 28.875 30.0782 28.875H34.0886C36.527 28.875 38.5001 30.8481 38.5001 33.2865Z" fill="black"/>
<path d="M19.25 28.0732C21.9079 28.0732 24.0625 25.9186 24.0625 23.2607C24.0625 20.6029 21.9079 18.4482 19.25 18.4482C16.5921 18.4482 14.4375 20.6029 14.4375 23.2607C14.4375 25.9186 16.5921 28.0732 19.25 28.0732Z" fill="black"/>
<path d="M23.6614 30.479H14.8385C12.4049 30.479 10.427 32.4569 10.427 34.8905V37.2967C10.427 37.9608 10.966 38.4998 11.6301 38.4998H26.8697C27.5338 38.4998 28.0728 37.9608 28.0728 37.2967V34.8905C28.0728 32.4569 26.0949 30.479 23.6614 30.479Z" fill="black"/>
<path d="M19.2281 13.7608C20.07 13.7608 20.7525 13.0783 20.7525 12.2364C20.7525 11.3944 20.07 10.7119 19.2281 10.7119C18.3861 10.7119 17.7036 11.3944 17.7036 12.2364C17.7036 13.0783 18.3861 13.7608 19.2281 13.7608Z" fill="white"/>
<path d="M19.2283 0.751953C17.0427 0.751953 15.2646 2.53002 15.2646 4.71557V5.09669H18.3136V4.71557C18.3136 4.2112 18.7239 3.80089 19.2283 3.80089C19.7326 3.80089 20.1429 4.2112 20.1429 4.71557C20.1429 4.98433 20.025 5.23872 19.8192 5.41355L17.7038 7.21209V9.94957H20.7527V8.62181L21.7938 7.73668C22.6823 6.98172 23.1919 5.88059 23.1919 4.71557C23.1919 2.53002 21.4138 0.751953 19.2283 0.751953Z" fill="#FFFCFC"/>
</g>
<defs>
<clipPath id="clip0">
<rect width="38.5" height="38.5" fill="white"/>
</clipPath>
</defs>
</svg>
