<svg width="43" height="43" viewBox="0 0 43 43" fill="none" xmlns="http://www.w3.org/2000/svg">
<path d="M4.47914 19.7082V14.3332C4.97364 14.3332 5.375 13.9319 5.375 13.4374C5.375 12.9429 4.97364 12.5415 4.47914 12.5415C2.00849 12.5415 0 14.5518 0 17.0207V18.8124C0 20.2941 1.20576 21.4999 2.6875 21.4999H4.47914C4.97364 21.4999 5.375 21.0985 5.375 20.604C5.375 20.1095 4.97364 19.7082 4.47914 19.7082Z" fill="black"/>
<path d="M38.5209 12.5415C38.0264 12.5415 37.625 12.9429 37.625 13.4374C37.625 13.9319 38.0264 14.3332 38.5209 14.3332V19.7082C38.0264 19.7082 37.625 20.1096 37.625 20.6041C37.625 21.0986 38.0264 21.4999 38.5209 21.4999H40.3125C41.7942 21.4999 43 20.2941 43 18.8124V17.0207C43 14.5518 40.9915 12.5415 38.5209 12.5415Z" fill="black"/>
<path d="M15.2291 37.625C14.7346 37.625 14.3332 38.0264 14.3332 38.5209H8.95823C8.95823 38.0264 8.55687 37.625 8.06237 37.625C7.56787 37.625 7.1665 38.0264 7.1665 38.5209V40.3125C7.1665 41.7942 8.37227 43 9.854 43H13.4374C14.9192 43 16.1249 41.7942 16.1249 40.3125V38.5209C16.1249 38.0264 15.7236 37.625 15.2291 37.625Z" fill="black"/>
<path d="M34.9375 37.625C34.443 37.625 34.0416 38.0264 34.0416 38.5209H28.6666C28.6666 38.0264 28.2653 37.625 27.7708 37.625C27.2763 37.625 26.875 38.0264 26.875 38.5209V40.3125C26.875 41.7942 28.0808 43 29.5625 43H33.1459C34.6276 43 35.8334 41.7942 35.8334 40.3125V38.5209C35.8334 38.0264 35.432 37.625 34.9375 37.625Z" fill="black"/>
<path d="M34.9374 0H8.06239C5.59165 0 3.58325 2.01025 3.58325 4.47914V34.9375C3.58325 37.4064 5.59174 39.4166 8.06239 39.4166H34.9374C37.4081 39.4166 39.4165 37.4064 39.4165 34.9375V4.47914C39.4165 2.01025 37.4081 0 34.9374 0ZM11.6458 3.58336H31.3541C32.8359 3.58336 34.0416 4.78913 34.0416 6.27086C34.0416 7.7526 32.8359 8.95836 31.3541 8.95836H11.6458C10.164 8.95836 8.95825 7.7526 8.95825 6.27086C8.95825 4.78913 10.164 3.58336 11.6458 3.58336ZM11.6458 34.0416C10.164 34.0416 8.95825 32.8359 8.95825 31.3541C8.95825 29.8724 10.164 28.6666 11.6458 28.6666C13.1275 28.6666 14.3333 29.8724 14.3333 31.3541C14.3333 32.8359 13.1274 34.0416 11.6458 34.0416ZM31.354 34.0416C29.8723 34.0416 28.6665 32.8359 28.6665 31.3541C28.6665 29.8724 29.8723 28.6666 31.354 28.6666C32.8358 28.6666 34.0415 29.8724 34.0415 31.3541C34.0415 32.8359 32.8358 34.0416 31.354 34.0416ZM35.8333 22.3959C35.8333 23.8776 34.6275 25.0834 33.1458 25.0834H9.85403C8.37229 25.0834 7.16653 23.8776 7.16653 22.3959V13.4375C7.16653 11.9558 8.37229 10.75 9.85403 10.75H33.1457C34.6274 10.75 35.8332 11.9558 35.8332 13.4375V22.3959H35.8333Z" fill="black"/>
</svg>
