<svg width="56" height="31" viewBox="0 0 56 31" fill="none" xmlns="http://www.w3.org/2000/svg">
<path d="M38.9671 20.6492H38.6617V19.2497C38.6617 18.3459 37.9871 17.8967 37.4547 17.7299L36.6164 15.8561C36.5441 15.6947 36.4105 15.5851 36.2579 15.5622L30.0915 14.6375L24.4168 3.95061C24.3301 3.78743 24.1791 3.68848 24.0168 3.68848H10.4946C10.3006 3.68848 10.1264 3.82931 10.0548 4.04366L6.72908 14.0234H3.50089C2.06844 14.0234 1.24679 14.9998 1.24679 16.7025V20.6582C0.547177 20.7453 0 21.4506 0 22.3051V23.759C0 24.672 0.62499 25.4149 1.39319 25.4149H5.60008C5.85658 28.1078 7.78382 30.2075 10.1168 30.2075C12.4498 30.2075 14.3771 28.1078 14.6336 25.4149H25.7264C25.9829 28.1078 27.91 30.2075 30.2429 30.2075C32.5761 30.2075 34.5036 28.1078 34.7601 25.4149H38.9669C39.7349 25.4149 40.3598 24.6719 40.3598 23.7588V22.3051C40.36 21.392 39.7352 20.6492 38.9671 20.6492ZM10.1169 27.6777C8.78368 27.6777 7.69891 26.3884 7.69891 24.8035C7.69891 23.2187 8.78368 21.9292 10.1169 21.9292C11.4503 21.9292 12.535 23.2185 12.535 24.8035C12.535 26.3882 11.4503 27.6777 10.1169 27.6777ZM30.243 27.6777C28.9099 27.6777 27.8252 26.3884 27.8252 24.8035C27.8252 23.2187 28.9099 21.9292 30.243 21.9292C31.5765 21.9292 32.6615 23.2186 32.6615 24.8033C32.6615 26.3882 31.5766 27.6777 30.243 27.6777Z" fill="black"/>
<path d="M38.4513 6.91516C38.5462 6.93062 38.6425 6.93849 38.738 6.93849H38.7381C39.7788 6.93849 40.6705 6.01321 40.8123 4.78602L41.0726 2.53094C41.118 2.13907 41.0322 1.74973 40.8309 1.43475C40.669 1.18118 40.448 1.00015 40.1964 0.911315C39.9026 0.453947 39.4714 0.153158 38.9849 0.0737443C38.9013 0.0601104 38.8164 0.0532227 38.7325 0.0532227C37.8178 0.0532227 37.0341 0.866339 36.9096 1.94482L36.6597 4.10924C36.5028 5.46968 37.3065 6.7285 38.4513 6.91516Z" fill="black"/>
<path d="M54.3198 13.0223L50.2147 10.855C50.1443 10.8097 50.0701 10.7736 49.9938 10.7439C49.9759 10.7367 49.9582 10.7285 49.9401 10.7238C49.8237 10.685 49.7026 10.6625 49.5787 10.6625C49.3075 10.6625 49.046 10.7592 48.8221 10.9424C48.8185 10.9453 48.8149 10.9483 48.8113 10.9514L46.9498 12.5659L44.2399 8.87003L45.693 8.71317C46.0012 8.69335 46.2855 8.53382 46.4943 8.26297C46.5246 8.22361 48.4194 5.30568 48.4194 5.30568C48.6128 5.00798 48.6971 4.6386 48.6568 4.26556C48.6164 3.89253 48.4563 3.5604 48.206 3.33087C47.9967 3.13873 47.7463 3.03711 47.4822 3.03711C47.1121 3.03711 46.7701 3.2367 46.5441 3.58457L45.0044 5.95462C45.0044 5.95462 41.4193 6.34776 41.3867 6.36027C41.1467 6.42225 40.9216 6.55367 40.7339 6.74806L39.5053 8.02065C39.2781 8.25594 39.1213 8.56193 39.0484 8.90207C39.0284 8.95478 38.4994 14.7008 38.4991 14.7118C38.485 15.0591 38.5697 15.3938 38.7381 15.6718C38.7552 15.7082 40.7727 18.3761 40.7727 18.3761C40.7803 18.3862 40.7884 18.3962 40.7967 18.4056C41.0362 18.6781 41.3507 18.8283 41.6821 18.8283C42.0296 18.8283 42.3666 18.6572 42.6061 18.3596L42.6299 18.3303C43.1133 17.7301 43.1002 16.7771 42.604 16.1951L41.1433 14.2706L41.2524 13.0625L46.0026 19.7521L44.9177 23.1584C44.7745 23.5373 44.7614 23.9599 44.8811 24.3511C45.003 24.7497 45.2481 25.0681 45.569 25.2459L45.6041 25.2656C45.7824 25.3645 45.9721 25.4146 46.1678 25.4146C46.6852 25.4146 47.1607 25.0546 47.3791 24.4974C47.3841 24.4848 48.8235 19.9672 48.8235 19.9672C48.8537 19.8473 48.8573 19.7749 48.8645 19.728C48.9282 19.3105 48.8557 18.8887 48.6542 18.5387C48.6458 18.524 47.1808 16.4363 47.1808 16.4363L49.7542 14.1326L53.2101 15.9573C53.3842 16.0505 53.5686 16.0977 53.7585 16.0977C54.2831 16.0977 54.7613 15.7301 54.975 15.1661L54.9918 15.1226C55.2941 14.3246 54.9935 13.3829 54.3198 13.0223Z" fill="black"/>
<path d="M31.0913 11.9518L35.2895 14.0602C35.3796 14.1054 35.4732 14.1269 35.5652 14.1269C35.8418 14.1269 36.1048 13.9334 36.2192 13.6116C36.3716 13.1825 36.2026 12.6878 35.8417 12.5066L31.6436 10.3983C31.2828 10.2169 30.8664 10.4179 30.7138 10.8468C30.5614 11.2759 30.7303 11.7706 31.0913 11.9518Z" fill="black"/>
<path d="M35.2785 10.6924C35.3999 10.9967 35.6546 11.1746 35.9202 11.1746C36.022 11.1746 36.1255 11.1484 36.2237 11.0931C36.5777 10.8937 36.7287 10.3908 36.5609 9.96979L32.7767 0.482275C32.6088 0.0613104 32.1856 -0.118039 31.8316 0.0815507C31.4775 0.280999 31.3265 0.783909 31.4943 1.20487L35.2785 10.6924Z" fill="black"/>
<path d="M49.5794 7.37938C49.7183 7.37938 49.8585 7.33103 49.9815 7.23039L54.357 3.64622C54.6797 3.38197 54.7609 2.85672 54.5385 2.47328C54.3161 2.0897 53.8743 1.99314 53.5516 2.25739L49.1761 5.84156C48.8533 6.1058 48.7722 6.63106 48.9945 7.0145C49.1323 7.2519 49.354 7.37938 49.5794 7.37938Z" fill="black"/>
<path d="M51.6157 8.02905C51.2319 7.93431 50.8564 8.22681 50.7763 8.68263C50.6964 9.1386 50.9426 9.58528 51.3262 9.6803L54.1644 10.3831C54.2132 10.3952 54.2618 10.4009 54.3097 10.4009C54.6387 10.4009 54.9339 10.1274 55.0037 9.72949C55.0836 9.27353 54.8374 8.82684 54.4538 8.73183L51.6157 8.02905Z" fill="black"/>
</svg>
