<svg width="43" height="43" viewBox="0 0 43 43" fill="none" xmlns="http://www.w3.org/2000/svg">
<path d="M2.19552 22.26C1.99773 22.1345 1.84335 21.9347 1.75813 21.6941L0.293945 19.7998V31.5369L6.93518 28.392L2.19552 22.26Z" fill="black"/>
<path d="M4.30933 21.506L8.9094 27.4575L16.6571 23.7886L12.4803 16.0498L4.30933 21.506Z" fill="black"/>
<path d="M11.4169 14.0791L8.01446 7.7749H1.30176C1.03447 7.7749 0.778128 7.89701 0.589127 8.11437C0.400125 8.33173 0.293945 8.62652 0.293945 8.93391V16.3105L2.94281 19.7376L11.4169 14.0791Z" fill="black"/>
<path d="M20.8688 32.7817L32.1763 27.3064L31.2449 19.8091L19.3196 25.0614L20.8688 32.7817Z" fill="black"/>
<path d="M17.4256 25.9312L9.96484 29.4642L13.3744 40.107L19.0436 33.9947L17.4256 25.9312Z" fill="black"/>
<path d="M34.2274 27.4261L42.6221 30.1845V14.7979L33.1755 18.9584L34.2274 27.4261Z" fill="black"/>
<path d="M0.293945 34.0436V39.8408C0.293945 40.1482 0.400125 40.443 0.589127 40.6604C0.778128 40.8777 1.03447 40.9998 1.30176 40.9998H11.5126L8.09987 30.3472L0.293945 34.0436Z" fill="black"/>
<path d="M41.6143 7.7749H31.7864L32.8832 16.6048L42.6221 12.3154V8.93391C42.6221 8.62652 42.5159 8.33173 42.3269 8.11437C42.1379 7.89701 41.8816 7.7749 41.6143 7.7749Z" fill="black"/>
<path d="M35.9135 40.9998H41.6142C41.8815 40.9998 42.1379 40.8777 42.3269 40.6603C42.5159 40.443 42.622 40.1482 42.622 39.8408V32.595L34.5396 29.939L35.9135 40.9998Z" fill="black"/>
<path d="M26.5019 32.5685L25.8037 40.9997H33.8774L32.4711 29.6782L26.5019 32.5685Z" fill="black"/>
<path d="M15.4934 40.9997H23.7791L24.3927 33.5898L20.7139 35.3712L15.4934 40.9997Z" fill="black"/>
<path d="M14.3441 12.1245C13.7414 10.7218 13.4375 9.38119 13.4375 8.11295C13.4375 7.99975 13.44 7.88713 13.4435 7.7749H10.3865L13.1605 12.9145L14.3441 12.1245Z" fill="black"/>
<path d="M26.0216 16.4245C25.0113 17.7111 23.9129 18.9027 22.7372 19.9877C22.3834 20.3041 21.948 20.4758 21.4999 20.4758C21.0517 20.4758 20.6164 20.3041 20.2626 19.9877C19.087 18.9028 17.9889 17.7113 16.9788 16.4248C16.4029 15.6949 15.8677 14.9239 15.3763 14.1164L14.2246 14.8855L18.5582 22.9149L30.9531 17.4556L29.7502 7.7749H29.5565C29.5601 7.88713 29.5625 7.99975 29.5625 8.11295C29.5625 10.6259 28.3712 13.4223 26.0216 16.4245V16.4245Z" fill="black"/>
<path d="M20.8813 19.0727C21.0582 19.2309 21.2759 19.3168 21.5 19.3168C21.7241 19.3168 21.9418 19.2309 22.1187 19.0727C23.2477 18.0301 24.3023 16.8853 25.2725 15.6493C27.4505 12.8664 28.5547 10.3308 28.5547 8.11308C28.5547 5.96135 27.8114 3.89776 26.4884 2.37627C25.1654 0.854768 23.371 0 21.5 0C19.629 0 17.8346 0.854768 16.5116 2.37627C15.1886 3.89776 14.4453 5.96135 14.4453 8.11308C14.4453 10.3308 15.5495 12.8664 17.7275 15.6493C18.6977 16.8853 19.7523 18.0301 20.8813 19.0727V19.0727ZM21.5 4.24971C22.1644 4.24971 22.8139 4.47629 23.3664 4.9008C23.9188 5.32531 24.3494 5.92869 24.6037 6.63463C24.8579 7.34057 24.9244 8.11736 24.7948 8.86678C24.6652 9.6162 24.3453 10.3046 23.8754 10.8449C23.4056 11.3852 22.807 11.7531 22.1554 11.9022C21.5037 12.0513 20.8283 11.9748 20.2144 11.6824C19.6006 11.39 19.0759 10.8948 18.7068 10.2594C18.3376 9.62412 18.1406 8.87718 18.1406 8.11308C18.1416 7.0888 18.4959 6.1068 19.1257 5.38253C19.7555 4.65826 20.6093 4.25086 21.5 4.24971V4.24971Z" fill="black"/>
</svg>
