<svg width="43" height="43" viewBox="0 0 43 43" fill="none" xmlns="http://www.w3.org/2000/svg">
<path d="M25.3023 3.86328C23.12 3.86328 20.9613 4.5906 19.2239 5.91138L9.18382 13.5428H2.32401C1.04259 13.5428 0 14.5854 0 15.8668V27.2519C0 28.5334 1.04259 29.576 2.32401 29.576H9.28749L19.2239 37.129C20.9613 38.4494 23.12 39.1767 25.3023 39.1767C26.3934 39.1767 27.2808 38.2893 27.2808 37.1985V5.84151C27.2808 4.75069 26.3934 3.86328 25.3023 3.86328ZM26.0132 37.1985C26.0132 37.5906 25.6943 37.9091 25.3023 37.9091C23.3956 37.9091 21.5092 37.2736 19.9909 36.1195L10.0312 28.5491V19.7452C10.0312 19.3951 9.74744 19.1114 9.39739 19.1114C9.04735 19.1114 8.76357 19.3951 8.76357 19.7452V28.3083H2.32401C1.74169 28.3083 1.26764 27.8343 1.26764 27.2519V15.8668C1.26764 15.2845 1.74169 14.8104 2.32401 14.8104H8.76357V16.7874C8.76357 17.1374 9.04735 17.4212 9.39739 17.4212C9.74744 17.4212 10.0312 17.1374 10.0312 16.7874V14.4909L19.9909 6.92051C21.5092 5.76638 23.3956 5.13092 25.3023 5.13092C25.6943 5.13092 26.0132 5.4498 26.0132 5.84151V37.1985Z" fill="black"/>
<path d="M26.0132 37.1985C26.0132 37.5906 25.6943 37.9091 25.3023 37.9091C23.3956 37.9091 21.5092 37.2736 19.9909 36.1195L10.0312 28.5491V19.7452C10.0312 19.3951 9.74744 19.1114 9.39739 19.1114C9.04735 19.1114 8.76357 19.3951 8.76357 19.7452V28.3083H2.32401C1.74169 28.3083 1.26764 27.8343 1.26764 27.2519V15.8668C1.26764 15.2845 1.74169 14.8104 2.32401 14.8104H8.76357V16.7874C8.76357 17.1374 9.04735 17.4212 9.39739 17.4212C9.74744 17.4212 10.0312 17.1374 10.0312 16.7874V14.4909L19.9909 6.92051C21.5092 5.76638 23.3956 5.13092 25.3023 5.13092C25.6943 5.13092 26.0132 5.4498 26.0132 5.84151V37.1985Z" fill="black"/>
<path d="M40.5444 13.561C39.9115 12.647 39.1724 11.8114 38.3477 11.0779C38.0862 10.8453 37.6856 10.8689 37.4527 11.1304C37.2201 11.3922 37.2437 11.7927 37.5052 12.0253C38.2548 12.692 38.9267 13.4514 39.5021 14.2827C40.961 16.3902 41.7323 18.8638 41.7323 21.4362C41.7323 24.0089 40.9614 26.4825 39.5021 28.5899C38.0773 30.6482 36.0981 32.2216 33.779 33.1395C32.9543 33.4663 32.3641 32.1544 33.2502 31.8037C37.5301 30.1095 40.2957 26.0399 40.2957 21.4362C40.2957 16.8328 37.5301 12.7632 33.2502 11.069C33.0717 10.9982 32.9317 10.8624 32.8555 10.6862C32.7791 10.5103 32.7762 10.3151 32.8467 10.1367C32.9927 9.76826 33.411 9.58717 33.779 9.73316C34.3315 9.95198 34.8725 10.2115 35.3866 10.5044C35.6903 10.678 36.0775 10.572 36.251 10.2679C36.4246 9.96379 36.3186 9.57667 36.0145 9.40345C35.4489 9.08064 34.8538 8.79522 34.2459 8.55442C33.2276 8.15156 32.0711 8.65186 31.6683 9.67017C31.4728 10.1633 31.4816 10.7029 31.6922 11.1898C31.9028 11.6766 32.2906 12.0526 32.7837 12.2478C36.5771 13.7493 39.0281 17.3561 39.0281 21.4365C39.0281 25.5166 36.5771 29.1234 32.7837 30.6253C32.2906 30.8205 31.9028 31.1961 31.6922 31.6829C31.4813 32.1698 31.4728 32.7094 31.6683 33.2029C31.9701 33.9656 32.6951 34.458 33.5153 34.458C33.7656 34.458 34.0116 34.4111 34.2459 34.3183C36.7985 33.3078 38.9766 31.5763 40.5447 29.3117C42.1509 26.991 42.9999 24.2677 42.9999 21.4362C42.9999 18.6047 42.1509 15.8814 40.5444 13.561V13.561Z" fill="black"/>
<path d="M35.3383 26.899C35.0942 26.6481 34.693 26.6425 34.442 26.8866C33.2708 28.025 31.7988 28.7352 30.1844 28.9406C29.191 29.0669 29.1362 27.6257 30.0036 27.5151C33.0113 27.133 35.2792 24.5557 35.2792 21.5201C35.2792 18.4849 33.0113 15.9076 30.0036 15.5254C29.6106 15.4752 29.3318 15.115 29.3816 14.722C29.4059 14.5317 29.5027 14.3621 29.6546 14.2446C29.8061 14.1272 29.9941 14.076 30.1847 14.1C33.9082 14.5734 36.7158 17.7634 36.7158 21.5201C36.7158 22.7156 36.4238 23.9071 35.872 24.9664C35.71 25.2768 35.8307 25.6596 36.141 25.8214C36.4514 25.9834 36.8342 25.8627 36.996 25.5523C37.6419 24.3129 37.9834 22.9186 37.9834 21.5201C37.9834 17.1267 34.6995 13.3959 30.3448 12.8425C29.8186 12.7752 29.2976 12.9173 28.878 13.2424C28.4588 13.5672 28.1911 14.036 28.1238 14.5622C28.0569 15.0884 28.1993 15.6094 28.5241 16.0286C28.8488 16.4479 29.3173 16.7159 29.8435 16.7825C32.2197 17.0847 34.0113 19.1213 34.0113 21.5201C34.0113 23.9189 32.2194 25.9555 29.8435 26.2574C28.7573 26.3955 27.9857 27.3918 28.1238 28.478C28.2495 29.4675 29.0959 30.2138 30.0925 30.2138C30.1765 30.2138 30.2615 30.2086 30.3445 30.1977C32.2332 29.9576 33.9555 29.1269 35.3251 27.795C35.5764 27.5512 35.582 27.15 35.3383 26.899V26.899Z" fill="black"/>
</svg>
