<svg width="43" height="43" viewBox="0 0 43 43" fill="none" xmlns="http://www.w3.org/2000/svg">
<path d="M31.2107 22.8568L26.9045 18.1067C26.6363 17.811 26.3898 17.2016 26.3774 16.8022L26.2189 11.8734V11.7306C26.2189 10.9711 25.6009 10.353 24.8414 10.353H20.6262H18.9511C18.2724 10.353 17.5153 10.8338 17.2264 11.4477L11.5519 23.5011C11.3949 23.8354 11.3793 24.2087 11.5079 24.5535C11.6364 24.8979 11.8936 25.1697 12.2311 25.3185L13.0672 25.6872C13.2454 25.7657 13.4355 25.8057 13.6325 25.8057C14.1729 25.8057 14.6762 25.4985 14.9154 25.0232L17.5736 19.7349V25.0503C17.5626 25.0811 17.5465 25.1091 17.5364 25.1403L13.0443 39.2086C12.8574 39.7945 12.9143 40.4111 13.205 40.9447C13.4956 41.4783 13.9824 41.8603 14.5765 42.0206L14.8768 42.1018C15.0734 42.1551 15.2772 42.1822 15.482 42.1822C16.5156 42.1822 17.4547 41.5021 17.766 40.5278L21.9633 27.3825L23.452 31.0288C23.8152 31.9182 24.2073 33.4758 24.3083 34.4308L25.0205 41.1445C25.1348 42.2194 25.9848 42.9995 27.0418 42.9995C27.2149 42.9995 27.3908 42.9784 27.5639 42.9366L27.8665 42.8631C29.0713 42.5716 29.9227 41.3336 29.7642 40.1044L28.7095 31.9182C28.5754 30.8782 28.1268 29.2495 27.7094 28.2875L26.2851 25.0072C26.2667 24.9645 26.2405 24.9259 26.2194 24.8846V22.6617L28.7862 25.3414C29.0415 25.6082 29.3831 25.7552 29.7477 25.7552C30.1164 25.7552 30.4608 25.6055 30.717 25.3336L31.1918 24.8295C31.6997 24.2899 31.7084 23.4056 31.2107 22.8568Z" fill="black"/>
<path d="M22.2792 9.18582C24.812 9.18582 26.8724 7.12549 26.8724 4.59268C26.8724 2.06032 24.812 0 22.2792 0C19.7469 0 17.687 2.06032 17.687 4.59268C17.6866 7.12549 19.7469 9.18582 22.2792 9.18582Z" fill="black"/>
</svg>
